<svg xmlns="http://www.w3.org/2000/svg" width="20" height="20" viewBox="0 0 48 48"><g><path fill="#4285F4" d="M24 9.5c3.54 0 6.7 1.22 9.19 3.23l6.87-6.87C36.13 2.36 30.45 0 24 0 14.82 0 6.91 5.8 2.69 14.19l8.06 6.26C12.6 13.99 17.82 9.5 24 9.5z"/><path fill="#34A853" d="M46.1 24.55c0-1.64-.15-3.22-.42-4.74H24v9.01h12.42c-.54 2.9-2.18 5.36-4.65 7.01l7.19 5.6C43.98 37.13 46.1 31.36 46.1 24.55z"/><path fill="#FBBC05" d="M10.75 28.44A14.5 14.5 0 0 1 9.5 24c0-1.54.26-3.03.72-4.44l-8.06-6.26A23.93 23.93 0 0 0 0 24c0 3.93.94 7.65 2.66 10.94l8.09-6.5z"/><path fill="#EA4335" d="M24 48c6.45 0 12.13-2.13 16.54-5.81l-7.19-5.6c-2.01 1.35-4.59 2.16-7.35 2.16-6.18 0-11.4-4.49-13.25-10.5l-8.09 6.5C6.91 42.2 14.82 48 24 48z"/></g></svg>
